# xmcd
#
# Track frame offsets: 
#        150
#        10414
#        22002
#        33908
#        43995
#        57190
#        68543
#        79105
#        89267
#        99895
#        113731
#        125539
#
# Disc length: 1811 seconds
#
# Revision: 0
# Processed by: cddbd v1.5.2PL0 Copyright (c) Steve Scherf et al.
# Submitted via: ExactAudioCopy v1.3
#
DISCID=9107110c
DTITLE=Sugar Chile Robinson - Vooey Vooey Vay!
DYEAR=2020
DGENRE=Blues
TTITLE0=Vooey Vooey Vay
TTITLE1=After School Blues
TTITLE2=Sticks And Stones
TTITLE3=The Bases Were Loaded
TTITLE4=Broken-Down Piano
TTITLE5=I'll Eat My Spinach
TTITLE6=Baby Blues
TTITLE7=The Donkey Song
TTITLE8=The Hunkie Man (The Ice Cream Man)
TTITLE9=The Green Grass Grows All Around
TTITLE10=Rudolph The Red-Nosed Reindeer
TTITLE11=Christmas Boogie
EXTD=
EXTT0=
EXTT1=
EXTT2=
EXTT3=
EXTT4=
EXTT5=
EXTT6=
EXTT7=
EXTT8=
EXTT9=
EXTT10=
EXTT11=
PLAYORDER=
